<?xml version="1.0" standalone="no"?>
<!DOCTYPE svg PUBLIC "-//W3C//DTD SVG 20010904//EN"
 "http://www.w3.org/TR/2001/REC-SVG-20010904/DTD/svg10.dtd">
<svg version="1.0" xmlns="http://www.w3.org/2000/svg"
 width="16.000000pt" height="16.000000pt" viewBox="0 0 16.000000 16.000000"
 preserveAspectRatio="xMidYMid meet">
<metadata>
Created by potrace 1.11, written by Peter Selinger 2001-2013
</metadata>
<g transform="translate(0.000000,16.000000) scale(0.003200,-0.003200)"
fill="#000000" stroke="none">
<path d="M2450 4533 c0 -5 -24 -9 -52 -9 -56 -1 -216 -13 -258 -19 -14 -3 -45
-7 -70 -10 -163 -21 -429 -96 -608 -171 -419 -176 -674 -411 -763 -704 -33
-109 -33 -300 -1 -381 100 -251 361 -432 687 -476 74 -10 366 -10 455 0 120
13 235 28 250 32 8 3 32 7 54 11 21 3 48 8 60 10 11 2 37 7 56 10 19 3 38 8
42 10 4 3 18 -19 33 -47 14 -28 35 -63 46 -78 l21 -26 -34 -7 c-18 -4 -76 -17
-128 -28 -52 -12 -106 -24 -120 -26 -57 -11 -262 -67 -365 -101 -387 -126
-664 -277 -865 -474 -274 -269 -413 -557 -413 -854 0 -173 59 -336 167 -467
118 -142 241 -210 460 -254 10 -2 36 -4 58 -6 22 -1 42 -6 45 -10 2 -5 11 -3
20 3 12 10 16 10 23 -1 7 -11 12 -11 23 -2 7 7 16 9 19 7 12 -12 53 -14 60 -2
6 9 8 9 8 -1 0 -8 5 -10 13 -5 20 12 37 12 37 0 0 -9 2 -9 8 -1 4 6 40 14 81
18 168 14 422 82 616 163 177 75 412 203 548 300 105 75 264 231 317 311 103
156 146 344 109 473 -37 130 -157 234 -303 263 -60 13 -222 13 -281 2 -16 -4
-46 -9 -65 -12 -175 -28 -415 -125 -633 -255 -91 -55 -324 -213 -337 -229 -3
-3 -18 -16 -35 -29 -87 -66 -244 -216 -339 -322 -46 -52 -186 -234 -186 -243
0 -6 61 -39 64 -34 248 366 629 689 1059 898 97 47 271 115 319 124 13 2 43 9
68 15 141 32 316 35 397 7 69 -23 144 -91 172 -156 22 -51 29 -156 16 -224
-11 -57 -62 -173 -101 -232 -162 -245 -567 -509 -1009 -659 -54 -18 -229 -62
-285 -70 -25 -4 -53 -9 -63 -11 -124 -23 -346 -22 -467 1 -167 33 -323 141
-384 267 -107 220 38 602 387 1018 231 277 450 452 734 587 169 80 406 153
581 179 20 3 42 7 48 9 7 2 25 -10 40 -27 43 -44 141 -111 203 -137 65 -27
166 -37 214 -22 118 39 119 146 2 205 -77 39 -159 56 -294 61 -112 4 -117 6
-138 32 -19 24 -36 77 -37 123 -1 8 8 16 19 18 64 11 417 110 561 158 386 128
695 275 959 455 353 241 539 461 550 653 6 116 -53 213 -162 263 -182 84 -453
54 -821 -89 -132 -52 -435 -204 -560 -282 -409 -255 -650 -549 -700 -856 -11
-67 -2 -225 14 -251 4 -7 -18 -14 -78 -24 -38 -7 -72 -13 -138 -25 -30 -5 -73
-12 -95 -14 -22 -3 -69 -8 -105 -13 -82 -10 -386 -10 -465 0 -135 17 -298 73
-387 135 -80 55 -166 150 -200 220 -27 57 -33 81 -36 159 -11 232 120 465 373
670 229 185 467 299 764 368 60 14 126 27 146 30 21 2 54 7 74 10 85 12 128
15 258 21 75 3 141 8 145 10 5 3 6 18 4 32 -2 15 -5 30 -5 34 -1 8 -22 5 -40
-6 -10 -6 -12 -5 -7 2 4 7 3 12 -3 12 -5 0 -13 -5 -16 -10 -5 -8 -11 -7 -21 1
-8 6 -14 7 -14 2z m1790 -178 c269 -47 274 -287 10 -556 -239 -244 -587 -451
-1060 -630 -95 -36 -180 -65 -382 -128 -37 -12 -135 -39 -218 -60 -129 -34
-150 -37 -146 -23 3 9 15 49 27 87 79 261 332 576 699 871 313 251 631 416
845 438 32 4 60 8 62 9 5 6 119 0 163 -8z m-1476 -1750 c84 -18 140 -44 144
-69 12 -64 -164 -40 -282 38 -31 21 -54 41 -52 45 7 10 108 2 190 -14z"/>
</g>
</svg>
